<?xml version="1.0" encoding="UTF-8"?>
<svg width="700pt" height="700pt" version="1.1" viewBox="0 0 700 700" xmlns="http://www.w3.org/2000/svg" xmlns:xlink="http://www.w3.org/1999/xlink">
 <defs>

 </defs>
 <g>
  <path d="m372.31 163.19h-44.625c-9.625 0-17.062 7.4375-17.062 17.062v3.0625h78.75v-3.0625c0-9.625-7.4375-17.062-17.062-17.062z"/>
  <path d="m221.81 272.12 21.438-66.062c3.5-10.5 13.125-17.938 24.062-17.938h165.38c10.938 0 21 7.4375 24.062 17.938l21.438 66.062"/>
  <path d="m214.38 372.75h25.375v15.312c0 4.8125-4.375 8.3125-9.625 8.3125h-6.125c-5.25 0-9.625-3.9375-9.625-8.3125z"/>
  <path d="m460.25 372.75h25.375v15.312c0 4.8125-4.375 8.3125-9.625 8.3125h-6.125c-5.25 0-9.625-3.9375-9.625-8.3125z"/>
  <path d="m472.5 276.5h-245c-10.938 0-19.688 7.875-19.688 17.938v73.5h284.38v-73.5c0-9.625-8.75-17.938-19.688-17.938zm-204.31 50.312c0 3.0625-3.5 5.6875-7.4375 5.6875h-17.5c-4.375 0-7.4375-2.625-7.4375-5.6875v-11.375c0-3.0625 3.5-5.6875 7.4375-5.6875h17.5c4.375 0 7.4375 2.625 7.4375 5.6875zm142.62-0.4375h-121.62v-10.062h122.06v10.062zm53.375 0.4375c0 3.0625-3.5 5.6875-7.4375 5.6875h-17.5c-4.375 0-7.4375-2.625-7.4375-5.6875v-11.375c0-3.0625 3.5-5.6875 7.4375-5.6875h17.5c4.375 0 7.4375 2.625 7.4375 5.6875z"/>
  <path d="m350 529.38c-137.38 0-249.38-112-249.38-249.38s112-249.38 249.38-249.38 249.38 112 249.38 249.38-112 249.38-249.38 249.38zm0-486.06c-130.38 0-236.69 106.31-236.69 236.69s106.31 236.69 236.69 236.69 236.69-106.31 236.69-236.69-106.31-236.69-236.69-236.69z"/>
  <use x="70" y="625.625" xlink:href="#u"/>
  <use x="86.054688" y="625.625" xlink:href="#c"/>
  <use x="96.839844" y="625.625" xlink:href="#a"/>
  <use x="111.679687" y="625.625" xlink:href="#i"/>
  <use x="126.4375" y="625.625" xlink:href="#b"/>
  <use x="136.894531" y="625.625" xlink:href="#a"/>
  <use x="151.730469" y="625.625" xlink:href="#h"/>
  <use x="175.007812" y="625.625" xlink:href="#g"/>
  <use x="190.664062" y="625.625" xlink:href="#f"/>
  <use x="212.539062" y="625.625" xlink:href="#e"/>
  <use x="228.292969" y="625.625" xlink:href="#t"/>
  <use x="244.96875" y="625.625" xlink:href="#s"/>
  <use x="259.890625" y="625.625" xlink:href="#e"/>
  <use x="70" y="647.5" xlink:href="#r"/>
  <use x="79.515625" y="647.5" xlink:href="#c"/>
  <use x="90.304688" y="647.5" xlink:href="#d"/>
  <use x="105.332031" y="647.5" xlink:href="#q"/>
  <use x="135.742188" y="647.5" xlink:href="#b"/>
  <use x="146.199219" y="647.5" xlink:href="#p"/>
  <use x="161.773438" y="647.5" xlink:href="#a"/>
  <use x="184.222656" y="647.5" xlink:href="#o"/>
  <use x="202.53125" y="647.5" xlink:href="#d"/>
  <use x="217.558594" y="647.5" xlink:href="#n"/>
  <use x="233.132812" y="647.5" xlink:href="#m"/>
  <use x="256.320312" y="647.5" xlink:href="#l"/>
  <use x="272.355469" y="647.5" xlink:href="#c"/>
  <use x="283.140625" y="647.5" xlink:href="#d"/>
  <use x="298.171875" y="647.5" xlink:href="#k"/>
  <use x="305.667969" y="647.5" xlink:href="#a"/>
  <use x="320.503906" y="647.5" xlink:href="#j"/>
  <use x="333.472656" y="647.5" xlink:href="#b"/>
 </g>
</svg>
