<?xml version="1.0" encoding="UTF-8"?>
<svg width="600pt" height="600pt" version="1.1" viewBox="0 0 600 600" xmlns="http://www.w3.org/2000/svg" xmlns:xlink="http://www.w3.org/1999/xlink">
 <defs>
  
 </defs>
 <g>
  <path d="m367.86 241.56h97.035c2.3867 0 4.3203 1.9336 4.3203 4.3203v168.04c0 2.3867-1.9336 4.3203-4.3203 4.3203h-97.035c-2.3867 0-4.3203-1.9336-4.3203-4.3203v-168.04c0-2.3867 1.9336-4.3203 4.3203-4.3203zm92.715 8.6406h-88.395v159.4h88.395z"  fill="#50c442"/>
  <path d="m394.52 245.88c0 2.3867 1.9336 4.3203 4.3203 4.3203 2.3867 0 4.3203-1.9336 4.3203-4.3203v-25.477c0-2.3867-1.9336-4.3203-4.3203-4.3203h-20.559c-2.3867 0-4.3203 1.9336-4.3203 4.3203v25.477c0 2.3867 1.9336 4.3203 4.3203 4.3203s4.3203-1.9336 4.3203-4.3203v-21.156h11.918z"  fill="#50c442"/>
  <path d="m384.24 220.41c0 2.3867 1.9336 4.3203 4.3203 4.3203 2.3867 0 4.3203-1.9336 4.3203-4.3203v-74.332c0-2.3867-1.9336-4.3203-4.3203-4.3203-2.3867 0-4.3203 1.9336-4.3203 4.3203z"  fill="#50c442"/>
  <path d="m443.84 245.88h8.8594v-9.1172c0-1.9336-1.582-3.5156-3.5156-3.5156h-1.8281c-1.9336 0-3.5156 1.582-3.5156 3.5156z"  fill="#50c442" fill-rule="evenodd"/>
  <path d="m388.81 291.78c-2.3867 0-4.3203 1.9336-4.3203 4.3203 0 2.3867 1.9336 4.3203 4.3203 4.3203h55.129c2.3867 0 4.3203-1.9336 4.3203-4.3203 0-2.3867-1.9336-4.3203-4.3203-4.3203z"  fill="#50c442"/>
  <path d="m388.81 325.59c-2.3867 0-4.3203 1.9336-4.3203 4.3203s1.9336 4.3203 4.3203 4.3203h55.129c2.3867 0 4.3203-1.9336 4.3203-4.3203s-1.9336-4.3203-4.3203-4.3203z"  fill="#50c442"/>
  <path d="m388.81 359.39c-2.3867 0-4.3203 1.9336-4.3203 4.3203s1.9336 4.3203 4.3203 4.3203h55.129c2.3867 0 4.3203-1.9336 4.3203-4.3203s-1.9336-4.3203-4.3203-4.3203z"  fill="#50c442"/>
  <path d="m235.11 241.56h97.035c2.3867 0 4.3203 1.9336 4.3203 4.3203v168.04c0 2.3867-1.9336 4.3203-4.3203 4.3203h-97.035c-2.3867 0-4.3203-1.9336-4.3203-4.3203v-168.04c0-2.3867 1.9336-4.3203 4.3203-4.3203zm92.715 8.6406h-88.395v159.4h88.395z"  fill="#50c442"/>
  <path d="m261.77 245.88c0 2.3867 1.9336 4.3203 4.3203 4.3203 2.3867 0 4.3203-1.9336 4.3203-4.3203v-25.477c0-2.3867-1.9336-4.3203-4.3203-4.3203h-20.559c-2.3867 0-4.3203 1.9336-4.3203 4.3203v25.477c0 2.3867 1.9336 4.3203 4.3203 4.3203 2.3867 0 4.3203-1.9336 4.3203-4.3203v-21.156h11.918z"  fill="#50c442"/>
  <path d="m251.48 220.41c0 2.3867 1.9336 4.3203 4.3203 4.3203 2.3867 0 4.3203-1.9336 4.3203-4.3203v-74.332c0-2.3867-1.9336-4.3203-4.3203-4.3203-2.3867 0-4.3203 1.9336-4.3203 4.3203z "  fill="#50c442"/>
  <path d="m311.09 245.88h8.8594v-9.1172c0-1.9336-1.582-3.5156-3.5156-3.5156h-1.8281c-1.9336 0-3.5156 1.582-3.5156 3.5156z" fill="#50c442" fill-rule="evenodd"/>
  <path d="m256.06 291.78c-2.3867 0-4.3203 1.9336-4.3203 4.3203 0 2.3867 1.9336 4.3203 4.3203 4.3203h55.129c2.3867 0 4.3203-1.9336 4.3203-4.3203 0-2.3867-1.9336-4.3203-4.3203-4.3203z"  fill="#50c442"/>
  <path d="m256.06 325.59c-2.3867 0-4.3203 1.9336-4.3203 4.3203s1.9336 4.3203 4.3203 4.3203h55.129c2.3867 0 4.3203-1.9336 4.3203-4.3203s-1.9336-4.3203-4.3203-4.3203z"  fill="#50c442"/>
  <path d="m354.32 2.5312 116.92 67.504-0.007812 0.015625 116.89 67.488 4.3555 2.5156v279.9l-4.3555 2.5156-116.89 67.488 0.007812 0.015625-116.92 67.504-4.3203 2.4922-4.3203-2.4922-116.92-67.504 0.007812-0.015625-116.89-67.488-4.3555-2.5156v-279.9l4.3555-2.5156 116.89-67.488-0.007812-0.015625 116.92-67.504 4.3203-2.4922zm108.28 82.422-112.6-65.008-112.6 65.008h-0.035156l-112.56 64.988v260.12l112.56 64.988h0.035156l112.6 65.008 112.6-65.008h0.035156l112.56-64.988v-260.12l-112.56-64.988z"  fill="#50c442"/>
  <path d="m256.06 359.39c-2.3867 0-4.3203 1.9336-4.3203 4.3203s1.9336 4.3203 4.3203 4.3203h55.129c2.3867 0 4.3203-1.9336 4.3203-4.3203s-1.9336-4.3203-4.3203-4.3203z"  fill="#50c442"/>
  <use x="70" y="717.5" xlink:href="#m"/>
  <use x="108.527344" y="717.5" xlink:href="#h"/>
  <use x="134.421875" y="717.5" xlink:href="#b"/> 
  <use x="170.027344" y="717.5" xlink:href="#g"/>
  <use x="205.453125" y="717.5" xlink:href="#f"/>
  <use x="230.550781" y="717.5" xlink:href="#b"/>
  <use x="266.15625" y="717.5" xlink:href="#e"/>
  <use x="322.015625" y="717.5" xlink:href="#d"/>
  <use x="359.597656" y="717.5" xlink:href="#c"/>
  <use x="412.097656" y="717.5" xlink:href="#a"/>
  <use x="431.628906" y="717.5" xlink:href="#l"/>
  <use x="469.644531" y="717.5" xlink:href="#a"/>
  <use x="489.179688" y="717.5" xlink:href="#k"/>
  <use x="529.863281" y="717.5" xlink:href="#j"/>
  <use x="574.492188" y="717.5" xlink:href="#i"/>
 </g>
</svg>
