<?xml version="1.0" encoding="UTF-8"?>
<svg width="600pt" height="600pt" version="1.1" viewBox="0 0 600 600" xmlns="http://www.w3.org/2000/svg" xmlns:xlink="http://www.w3.org/1999/xlink">
 <defs>
  
  
  
  
 </defs>
 <g>
  <path d="m241.98 214.76c0 1.4414 2.0664 2.6094 4.6172 2.6094s4.6172-1.168 4.6172-2.6094v-87.762h-9.2344z"/>
  <path d="m309.2 235.35v-9.8438c0-2.3438 0.67188-4.4883 1.7695-6.0977 0.046875-0.082031 0.10156-0.16016 0.15625-0.23438 1.1875-1.6211 2.8281-2.6289 4.6328-2.6289h2.1523c1.7891 0 3.4141 0.98828 4.5977 2.582l0.035156 0.046875-0.003906 0.007813c1.1914 1.6289 1.9297 3.8672 1.9297 6.3242v9.8438z"/>
  <path d="m246.89 294.42h64.84c1.3398 0 2.4219 1.0859 2.4219 2.4219 0 1.3398-1.0859 2.4219-2.4219 2.4219h-64.84c-1.3398 0-2.4219-1.0859-2.4219-2.4219 0-1.3398 1.0859-2.4219 2.4219-2.4219zm0 39.762h64.84c1.3398 0 2.4219 1.0859 2.4219 2.4219 0 1.3398-1.0859 2.4219-2.4219 2.4219h-64.84c-1.3398 0-2.4219-1.0859-2.4219-2.4219 0-1.3398 1.0859-2.4219 2.4219-2.4219zm-2.4219 42.184c0-1.3398 1.0859-2.4219 2.4219-2.4219h64.84c1.3398 0 2.4219 1.0859 2.4219 2.4219 0 1.3398-1.0859 2.4219-2.4219 2.4219h-64.84c-1.3398 0-2.4219-1.0859-2.4219-2.4219zm67.148-136.16h-86.949v192.8h109.29v-192.8z" fill-rule="evenodd"/>
  <path d="m233.8 235.35h25.594v-25.117h-25.594z" fill-rule="evenodd"/>
  <path d="m240.69 289.41h12.375v101.66h-12.375z" fill-rule="evenodd"/>
  <path d="m307.82 289.41h12.375v101.66h-12.375z" fill-rule="evenodd"/>
  <path d="m373.99 214.76c0 1.4414 2.0664 2.6094 4.6172 2.6094s4.6172-1.168 4.6172-2.6094v-87.762h-9.2344z"/>
  <path d="m441.21 235.35v-9.8438c0-2.3438 0.67188-4.4883 1.7695-6.0977 0.046876-0.082031 0.10156-0.16016 0.15625-0.23438 1.1875-1.6211 2.8281-2.6289 4.6328-2.6289h2.1523c1.7891 0 3.4141 0.98828 4.5977 2.582l0.035156 0.046875-0.003906 0.007813c1.1914 1.6289 1.9297 3.8672 1.9297 6.3242v9.8438z"/>
  <path d="m378.91 294.42h64.84c1.3398 0 2.4219 1.0859 2.4219 2.4219 0 1.3398-1.0859 2.4219-2.4219 2.4219h-64.84c-1.3398 0-2.4219-1.0859-2.4219-2.4219 0-1.3398 1.0859-2.4219 2.4219-2.4219zm0 39.762h64.84c1.3398 0 2.4219 1.0859 2.4219 2.4219 0 1.3398-1.0859 2.4219-2.4219 2.4219h-64.84c-1.3398 0-2.4219-1.0859-2.4219-2.4219 0-1.3398 1.0859-2.4219 2.4219-2.4219zm-2.4219 42.184c0-1.3398 1.0859-2.4219 2.4219-2.4219h64.84c1.3398 0 2.4219 1.0859 2.4219 2.4219 0 1.3398-1.0859 2.4219-2.4219 2.4219h-64.84c-1.3398 0-2.4219-1.0859-2.4219-2.4219zm67.148-136.16h-86.949v192.8h109.29v-192.8z" fill-rule="evenodd"/>
  <path d="m365.81 235.35h25.594v-25.117h-25.594z" fill-rule="evenodd"/>
  <path d="m372.7 289.41h12.375v101.66h-12.375z" fill-rule="evenodd"/>
  <path d="m439.83 289.41h12.375v101.66h-12.375z" fill-rule="evenodd"/>
  <path d="m354.32 2.5312 116.92 67.504-0.007812 0.015625 116.89 67.488 4.3555 2.5156v279.9l-4.3555 2.5156-116.89 67.488 0.007812 0.015625-116.92 67.504-4.3203 2.4922-4.3203-2.4922-116.92-67.504 0.007812-0.015625-116.89-67.488-4.3555-2.5156v-279.9l4.3555-2.5156 116.89-67.488-0.007812-0.015625 116.92-67.504 4.3203-2.4922zm-4.3203 27.438-85.789 49.531 0.007812 0.015625-130.77 75.504v249.97l130.77 75.504-0.007812 0.015624 85.789 49.531 85.789-49.531-0.007812-0.015624 130.77-75.504v-249.97l-130.77-75.504 0.007812-0.015625z"/>
  <use x="70" y="717.5" xlink:href="#m"/>
  <use x="108.527344" y="717.5" xlink:href="#h"/>
  <use x="134.421875" y="717.5" xlink:href="#b"/>
  <use x="170.027344" y="717.5" xlink:href="#g"/>
  <use x="205.453125" y="717.5" xlink:href="#f"/>
  <use x="230.550781" y="717.5" xlink:href="#b"/>
  <use x="266.15625" y="717.5" xlink:href="#e"/>
  <use x="322.015625" y="717.5" xlink:href="#d"/>
  <use x="359.597656" y="717.5" xlink:href="#c"/>
  <use x="412.097656" y="717.5" xlink:href="#a"/>
  <use x="431.628906" y="717.5" xlink:href="#l"/>
  <use x="469.644531" y="717.5" xlink:href="#a"/>
  <use x="489.179688" y="717.5" xlink:href="#k"/>
  <use x="529.863281" y="717.5" xlink:href="#j"/>
  <use x="574.492188" y="717.5" xlink:href="#i"/>
 </g>
</svg>
